<?xml version="1.0" encoding="iso-8859-1"?>
<!-- Generator: Adobe Illustrator 19.0.0, SVG Export Plug-In . SVG Version: 6.00 Build 0)  -->
<svg version="1.1" id="Layer_1" xmlns="http://www.w3.org/2000/svg" xmlns:xlink="http://www.w3.org/1999/xlink" x="0px" y="0px"
	 viewBox="0 0 511.999 511.999" style="enable-background:new 0 0 511.999 511.999;" xml:space="preserve">
<g>
	<g>
		<path d="M455.517,94.082H126.866c-31.145,0-56.483,25.338-56.483,56.483v81.624h-54.21C7.241,232.189,0,239.431,0,248.363
			c0,8.932,7.241,16.173,16.173,16.173h54.21v43.425H43.336c-8.932,0-16.173,7.241-16.173,16.173
			c0,8.932,7.241,16.173,16.173,16.173h27.046v21.127c0,31.145,25.338,56.483,56.483,56.483h328.651
			c31.145,0,56.483-25.338,56.483-56.483V150.566C512,119.421,486.662,94.082,455.517,94.082z M126.866,126.429h328.651
			c5.736,0,11.008,2.015,15.154,5.369L313.698,246.985c-13.251,9.724-31.762,9.724-45.013,0L111.712,131.798
			C115.857,128.444,121.13,126.429,126.866,126.429z M479.654,361.434c0,13.309-10.827,24.137-24.137,24.137H126.866
			c-13.309,0-24.137-10.827-24.137-24.137v-21.127h60.902c8.932,0,16.173-7.241,16.173-16.173s-7.241-16.173-16.173-16.173h-60.902
			V165.327l146.82,107.736c12.26,8.998,26.949,13.494,41.642,13.494c14.689,0,29.384-4.498,41.642-13.494l146.82-107.736V361.434z"
			/>
	</g>
</g>
<g>
</g>
<g>
</g>
<g>
</g>
<g>
</g>
<g>
</g>
<g>
</g>
<g>
</g>
<g>
</g>
<g>
</g>
<g>
</g>
<g>
</g>
<g>
</g>
<g>
</g>
<g>
</g>
<g>
</g>
</svg>
